<svg xmlns="http://www.w3.org/2000/svg" width="1200" height="630" viewBox="0 0 1200 630"><defs><linearGradient id="g" x1="0" x2="1" y1="0" y2="1"><stop offset="0" stop-color="#061716"/><stop offset=".55" stop-color="#0b1324"/><stop offset="1" stop-color="#030711"/></linearGradient><radialGradient id="a" cx="35%" cy="35%" r="60%"><stop offset="0" stop-color="#ffe86c"/><stop offset=".34" stop-color="#66ffd2"/><stop offset=".68" stop-color="#7be7ff"/><stop offset="1" stop-color="#a78bff"/></radialGradient></defs><rect width="1200" height="630" fill="url(#g)"/><g opacity=".18" stroke="#fff"><path d="M0 90h1200M0 180h1200M0 270h1200M0 360h1200M0 450h1200M0 540h1200M100 0v630M200 0v630M300 0v630M400 0v630M500 0v630M600 0v630M700 0v630M800 0v630M900 0v630M1000 0v630M1100 0v630"/></g><circle cx="945" cy="315" r="110" fill="none" stroke="#ffe86c" stroke-dasharray="6 8" opacity=".65"/><circle cx="945" cy="315" r="72" fill="url(#a)"/><text x="945" y="345" text-anchor="middle" font-size="86" font-family="Arial Black,Arial" fill="#04111a">α</text><text x="84" y="120" font-size="26" font-weight="900" letter-spacing="10" font-family="Arial" fill="#ffe86c">GOALOS AGIALPHA ASCENSION</text><text x="84" y="250" font-size="76" font-weight="900" font-family="Arial" fill="#f9f6ec">AI creates output.</text><text x="84" y="340" font-size="86" font-weight="900" font-family="Arial" fill="#66ffd2">GoalOS creates proof.</text><text x="84" y="430" font-size="32" font-family="Arial" fill="#d6e2f0">No user data. No user funds. Human review required.</text><rect x="84" y="490" width="560" height="64" rx="24" fill="rgba(255,255,255,.08)" stroke="rgba(255,255,255,.25)"/><text x="112" y="532" font-size="24" font-weight="800" font-family="Arial" fill="#f9f6ec">Public-alpha proof operating system</text></svg>