<svg xmlns="http://www.w3.org/2000/svg" width="1280" height="640" viewBox="0 0 1280 640"><defs><linearGradient id="g" x1="0" y1="0" x2="1" y2="1"><stop stop-color="#071826"/><stop offset=".5" stop-color="#05111d"/><stop offset="1" stop-color="#241b43"/></linearGradient><radialGradient id="a" cx=".25" cy=".25" r=".7"><stop stop-color="#fff36b"/><stop offset=".45" stop-color="#63ffd4"/><stop offset="1" stop-color="#8fa8ff"/></radialGradient></defs><rect width="1280" height="640" fill="url(#g)"/><path d="M0 120H1280M0 240H1280M0 360H1280M0 480H1280M160 0V640M320 0V640M480 0V640M640 0V640M800 0V640M960 0V640M1120 0V640" stroke="white" stroke-opacity=".06"/><circle cx="1060" cy="150" r="260" fill="#63ffd4" opacity=".09"/><circle cx="220" cy="520" r="320" fill="#8fa8ff" opacity=".08"/><rect x="80" y="78" width="1120" height="484" rx="38" fill="white" opacity=".06" stroke="white" stroke-opacity=".18"/><circle cx="160" cy="155" r="38" fill="url(#a)"/><text x="222" y="154" fill="#fff" font-family="Inter,Arial" font-size="28" font-weight="900" letter-spacing="10">GOALOS</text><text x="222" y="188" fill="#c8d7e8" font-family="Inter,Arial" font-size="13" font-weight="700" letter-spacing="6">AGIALPHA ASCENSION</text><text x="80" y="316" fill="#fff8e8" font-family="Inter,Arial" font-size="82" font-weight="1000">AI creates output.</text><text x="80" y="410" fill="#7fffd6" font-family="Georgia,serif" font-size="86" font-style="italic">GoalOS creates proof.</text><text x="82" y="488" fill="#d8e7f7" font-family="Inter,Arial" font-size="28" font-weight="700">No user data. No user funds. Human review required.</text></svg>