<svg xmlns="http://www.w3.org/2000/svg" viewBox="0 0 1200 630"><defs><linearGradient id="g" x1="0" x2="1"><stop stop-color="#07131f"/><stop offset=".5" stop-color="#0d2b30"/><stop offset="1" stop-color="#130b2b"/></linearGradient><linearGradient id="a" x1="0" x2="1"><stop stop-color="#ffe66d"/><stop offset=".5" stop-color="#63ffd7"/><stop offset="1" stop-color="#a88cff"/></linearGradient></defs><rect width="1200" height="630" fill="url(#g)"/><g opacity=".16" stroke="#fff"><path d="M0 90h1200M0 180h1200M0 270h1200M0 360h1200M0 450h1200M0 540h1200M120 0v630M240 0v630M360 0v630M480 0v630M600 0v630M720 0v630M840 0v630M960 0v630M1080 0v630"/></g><circle cx="965" cy="315" r="120" fill="url(#a)" opacity=".9"/><text x="965" y="350" text-anchor="middle" font-family="Arial Black,Arial" font-size="120" fill="#061016">α</text><text x="80" y="135" font-family="Arial Black,Arial" font-size="40" letter-spacing="10" fill="#ffe66d">GOALOS AGIALPHA ASCENSION</text><text x="80" y="270" font-family="Arial Black,Arial" font-size="84" fill="#f7f4e8">AI creates output.</text><text x="80" y="365" font-family="Arial Black,Arial" font-size="84" fill="#63ffd7">GoalOS creates proof.</text><text x="80" y="470" font-family="Arial" font-size="34" fill="#c9d6e6">No user data. No user funds. Human review required.</text></svg>