<svg xmlns="http://www.w3.org/2000/svg" width="1600" height="620" viewBox="0 0 1600 620" role="img" aria-label="GoalOS proof flow system map"><defs><linearGradient id="g" x1="0" x2="1"><stop offset="0" stop-color="#f8d47a"/><stop offset=".5" stop-color="#a78bfa"/><stop offset="1" stop-color="#7dd3fc"/></linearGradient></defs><rect width="1600" height="620" fill="#05050a"/><text x="70" y="90" fill="#fffaf0" font-family="Inter,Arial" font-size="48" font-weight="800">GoalOS AGIALPHA Ascension — Proof Flow</text><g font-family="Inter,Arial" font-size="22" font-weight="700" fill="#fffaf0"><text x="83" y="195">Objective</text><text x="284" y="195">Mission Contract</text><text x="552" y="195">Proof Jobs</text><text x="770" y="195">Evidence Docket</text><text x="1036" y="195">Validator Reports</text><text x="1284" y="195">Capability Package</text></g><g fill="none" stroke="url(#g)" stroke-width="3"><path d="M170 230 H300"/><path d="M470 230 H560"/><path d="M680 230 H790"/><path d="M960 230 H1040"/><path d="M1230 230 H1290"/></g><g fill="rgba(255,255,255,.07)" stroke="rgba(255,255,255,.22)"><rect x="60" y="145" width="150" height="120" rx="24"/><rect x="250" y="145" width="250" height="120" rx="24"/><rect x="540" y="145" width="170" height="120" rx="24"/><rect x="750" y="145" width="240" height="120" rx="24"/><rect x="1020" y="145" width="250" height="120" rx="24"/><rect x="1310" y="145" width="230" height="120" rx="24"/></g><text x="70" y="365" fill="#d9d0e8" font-family="Inter,Arial" font-size="28">No proof, no settlement. No Evidence Docket, no strong public claim. Public proof, private data.</text><rect x="70" y="430" width="1460" height="100" rx="28" fill="rgba(248,212,122,.10)" stroke="rgba(248,212,122,.5)"/><text x="105" y="492" fill="#fffaf0" font-family="Inter,Arial" font-size="30" font-weight="800">AI creates output. GoalOS creates proof.</text></svg>